# xmcd CD database file
#
# Track frame offsets:
#	150
#	23757
#	51458
#	64199
#	87240
#	114568
#	136435
#	162793
#	193569
#	212025
#	229389
#	246004
#	256530
#	286501
#
# Disc length: 4353 seconds
#
# Revision: 2
# Processed by: cddbd v1.5PL3 Copyright (c) Steve Scherf et al.
# Submitted via: CDex 1.51
#
DISCID=be10ff0e
DTITLE=The Santana Brothers - Viva Santana!
DYEAR=2000
DGENRE=Latin
TTITLE0=Oye Como Va - El Pito (I'll Nver Go Back To Georgia)(Live)
TTITLE1=Trasmutation - Industrial
TTITLE2=Thoughts
TTITLE3=Luz Amor Y Vida (Light Love And Life)
TTITLE4=En Aranjuez Con Tu Amor
TTITLE5=Contigo (With You)
TTITLE6=Blues Latino
TTITLE7=La Dansa
TTITLE8=Brujo
TTITLE9=The Trip
TTITLE10=Reflections
TTITLE11=Morning In Marin
TTITLE12=Samba Pa Ti - El Manisero - Forest Flower - Sunset - Brazil - Breezin' (Live)
TTITLE13=Black Magic Woman - Gypsy Queen - Paint It Black (Live)
EXTD=YEAR: 2000
EXTT0=
EXTT1=
EXTT2=
EXTT3=
EXTT4=
EXTT5=
EXTT6=
EXTT7=
EXTT8=
EXTT9=
EXTT10=
EXTT11=
EXTT12=
EXTT13=
PLAYORDER=
